<svg xmlns="http://www.w3.org/2000/svg" width="720" height="420" viewBox="0 0 720 420" role="img" aria-label="Step 4: Copy Organization ID and API key then paste here">
  <defs>
    <linearGradient id="bg4" x1="0" y1="0" x2="1" y2="1">
      <stop offset="0%" stop-color="#0f172a"/>
      <stop offset="100%" stop-color="#1e293b"/>
    </linearGradient>
    <filter id="sh4" x="-10%" y="-10%" width="120%" height="130%">
      <feDropShadow dx="0" dy="8" stdDeviation="12" flood-color="#000" flood-opacity="0.35"/>
    </filter>
  </defs>
  <rect width="720" height="420" fill="url(#bg4)"/>
  <!-- left: superwall keys -->
  <g filter="url(#sh4)">
    <rect x="40" y="60" width="300" height="260" rx="14" fill="#0b1220" stroke="#334155"/>
    <text x="60" y="96" fill="#f8fafc" font-family="ui-sans-serif,system-ui,sans-serif" font-size="15" font-weight="700">Your keys</text>
    <text x="60" y="130" fill="#94a3b8" font-family="ui-sans-serif,system-ui,sans-serif" font-size="11">Organization ID</text>
    <rect x="60" y="140" width="220" height="36" rx="8" fill="#1e293b" stroke="#2dd4bf"/>
    <text x="74" y="163" fill="#e2e8f0" font-family="ui-monospace,monospace" font-size="13">123456</text>
    <text x="60" y="206" fill="#94a3b8" font-family="ui-sans-serif,system-ui,sans-serif" font-size="11">API key</text>
    <rect x="60" y="216" width="220" height="36" rx="8" fill="#1e293b" stroke="#2dd4bf"/>
    <text x="74" y="239" fill="#e2e8f0" font-family="ui-monospace,monospace" font-size="12">sw_••••••••••••</text>
    <rect x="60" y="270" width="100" height="28" rx="8" fill="#0f766e"/>
    <text x="86" y="288" fill="#fff" font-family="ui-sans-serif,system-ui,sans-serif" font-size="12" font-weight="600">Copy</text>
  </g>
  <!-- arrow -->
  <path d="M360 190 L400 190" stroke="#2dd4bf" stroke-width="3" stroke-linecap="round"/>
  <path d="M390 178 L405 190 L390 202" fill="none" stroke="#2dd4bf" stroke-width="3" stroke-linecap="round" stroke-linejoin="round"/>
  <!-- right: this app -->
  <g filter="url(#sh4)">
    <rect x="420" y="60" width="260" height="260" rx="14" fill="#ffffff"/>
    <text x="440" y="96" fill="#111827" font-family="ui-sans-serif,system-ui,sans-serif" font-size="15" font-weight="700">This site</text>
    <text x="440" y="130" fill="#6b7280" font-family="ui-sans-serif,system-ui,sans-serif" font-size="11">Organization ID</text>
    <rect x="440" y="140" width="200" height="34" rx="8" fill="#f3f4f6" stroke="#0f766e" stroke-width="2"/>
    <text x="452" y="162" fill="#111827" font-family="ui-monospace,monospace" font-size="12">123456</text>
    <text x="440" y="200" fill="#6b7280" font-family="ui-sans-serif,system-ui,sans-serif" font-size="11">API key</text>
    <rect x="440" y="210" width="200" height="34" rx="8" fill="#f3f4f6" stroke="#0f766e" stroke-width="2"/>
    <text x="452" y="232" fill="#111827" font-family="ui-monospace,monospace" font-size="12">••••••••</text>
    <rect x="440" y="264" width="200" height="36" rx="10" fill="#0f766e"/>
    <text x="500" y="287" fill="#fff" font-family="ui-sans-serif,system-ui,sans-serif" font-size="13" font-weight="700">Connect</text>
  </g>
  <rect x="200" y="350" width="320" height="44" rx="12" fill="#ccfbf1"/>
  <text x="230" y="377" fill="#0f766e" font-family="ui-sans-serif,system-ui,sans-serif" font-size="13" font-weight="700">4. Paste both here → hit Connect</text>
</svg>
