<svg xmlns="http://www.w3.org/2000/svg" width="720" height="400" viewBox="0 0 720 400" role="img" aria-label="Step 4: Copy the sk_ key and paste here">
  <rect width="720" height="400" fill="#13151A"/>
  <rect x="50" y="60" width="280" height="240" rx="14" fill="#1a1d24" stroke="#2a2e38"/>
  <text x="74" y="100" fill="#f4f5f7" font-family="system-ui,sans-serif" font-size="15" font-weight="600">Organization API Keys</text>
  <text x="74" y="140" fill="#8b919c" font-family="system-ui,sans-serif" font-size="12">Token</text>
  <rect x="74" y="152" width="220" height="36" rx="8" fill="#0f1115" stroke="#74FFF1"/>
  <text x="90" y="175" fill="#e5e7eb" font-family="ui-monospace,monospace" font-size="13">sk_••••••••</text>
  <rect x="74" y="210" width="90" height="30" rx="8" fill="#74FFF1"/>
  <text x="96" y="230" fill="#13151A" font-family="system-ui,sans-serif" font-size="12" font-weight="700">Copy</text>
  <path d="M360 170 L400 170" stroke="#74FFF1" stroke-width="3" stroke-linecap="round"/>
  <path d="M388 158 L405 170 L388 182" fill="none" stroke="#74FFF1" stroke-width="3" stroke-linecap="round" stroke-linejoin="round"/>
  <rect x="420" y="60" width="250" height="240" rx="14" fill="#ffffff"/>
  <text x="444" y="100" fill="#13151A" font-family="system-ui,sans-serif" font-size="15" font-weight="700">This site</text>
  <text x="444" y="140" fill="#6b7280" font-family="system-ui,sans-serif" font-size="12">API key</text>
  <rect x="444" y="152" width="200" height="36" rx="8" fill="#f3f4f6" stroke="#74FFF1" stroke-width="2"/>
  <text x="458" y="175" fill="#13151A" font-family="ui-monospace,monospace" font-size="12">sk_••••••••</text>
  <rect x="444" y="220" width="200" height="40" rx="12" fill="#13151A"/>
  <text x="508" y="245" fill="#74FFF1" font-family="system-ui,sans-serif" font-size="14" font-weight="700">Connect</text>
  <text x="180" y="350" fill="#8b919c" font-family="system-ui,sans-serif" font-size="13">No org ID needed. We find it from your key.</text>
</svg>
